<?xml version="1.0"?>
<svg xmlns="http://www.w3.org/2000/svg" xmlns:xlink="http://www.w3.org/1999/xlink" version="1.1" id="Capa_1" x="0px" y="0px" viewBox="0 0 469.333 469.333" style="enable-background:new 0 0 469.333 469.333;" xml:space="preserve" width="512px" height="512px" class=""><g><g>
	<g>
		<g>
			<path d="M426.667,213.333l-124.68,0.044c24.027,14.93,55.043,43.557,61.096,73.174c3.521,17.292-1.083,33.427-12.979,45.438     C337.146,345.083,319.75,352,299.792,352c-32.979,0-63.562-18.833-75.187-26.938c-25.354-17.688-48.958-25.49-58.646-26.417     c-2.417-0.229-4.688-0.333-6.938-0.448c-21.042-0.979-40.604-3.667-72.292-26.969c-0.517-0.379-0.891-0.828-1.396-1.214v103.318     C85.333,379.229,90.104,384,96,384h362.667c5.896,0,10.667-4.771,10.667-10.667V256     C469.333,232.469,450.188,213.333,426.667,213.333z" data-original="#000000" class="active-path" data-old_color="#ffffff" fill="#ffffff"/>
			<path d="M99.237,254.039c29.028,21.365,44.801,22.105,60.054,22.824c2.768,0.135,5.556,0.26,8.511,0.542     c17.729,1.708,45.342,13.834,68.731,30.157c9.947,6.948,35.999,23.105,62.905,23.105c14.129,0,26.261-4.74,35.104-13.688     c6.825-6.886,9.322-15.938,7.241-26.157c-5.535-27.063-44.26-58.054-63.487-65.919c-25.199-10.302-53.957-26.209-64.882-41.96     c3.704-2.969,8.469-5.094,12.839-7.031c2.664-1.177,5.161-2.281,7.387-3.552c7.221,2.781,16.397,5.573,22.099,7.219l2.227,5.604     c1.602,4.073,5.535,6.74,9.905,6.74h73.059c0.146,0.021,0.312,0.01,0.416,0c5.889,0,10.654-4.771,10.654-10.667     c0-1.76-0.416-3.417-1.165-4.886c-12.36-62.533-23.223-73.513-26.822-77.159c-16.148-16.355-64.84-31.095-122.064-47.293     c-11.986-3.396-22.453-6.354-29.881-8.74c-31.13-9.938-70.063-40.585-70.438-40.887C98.654-0.043,94.7-0.636,91.163,0.707     C90.247,1.062,0,37.209,0,138.723c0,3.781,1.998,7.292,5.265,9.198c33.46,19.636,46.944,42.137,59.971,63.888     C74.703,227.632,83.651,242.58,99.237,254.039z" data-original="#000000" class="active-path" data-old_color="#ffffff" fill="#ffffff"/>
			<path d="M456.708,426.667H97.958c-3.458,0-6.708,1.688-8.708,4.521c-2,2.833-2.5,6.458-1.333,9.729     c6.042,17,22.167,28.417,40.083,28.417h298.667c17.917,0,34.042-11.417,40.083-28.417c1.167-3.271,0.667-6.896-1.333-9.729     C463.417,428.354,460.167,426.667,456.708,426.667z" data-original="#000000" class="active-path" data-old_color="#ffffff" fill="#ffffff"/>
		</g>
	</g>
</g></g> </svg>
