<?xml version="1.0"?>
<svg xmlns="http://www.w3.org/2000/svg" xmlns:xlink="http://www.w3.org/1999/xlink" version="1.1" id="Capa_1" x="0px" y="0px" viewBox="0 0 296.773 296.773" style="enable-background:new 0 0 296.773 296.773;" xml:space="preserve" width="512px" height="512px" class=""><g><g>
	<path d="M157.815,245.762c-12.965-15.225-20.803-34.943-20.803-56.461c0-18.895,5.912-41.121,17.625-66.391   c3.994-8.617,8.664-17.59,14.005-26.906c-25.189-45.43-56.067-82.18-58.245-84.75L100.861,0l-9.536,11.254   C87.61,15.639,0.345,119.504,0.345,196.256c0,55.426,45.091,100.518,100.516,100.518c30.167,0,57.269-13.359,75.71-34.471   C169.553,257.707,163.236,252.129,157.815,245.762z" data-original="#000000" class="active-path" data-old_color="#fb3e16" fill="#fb3e16"/>
	<path d="M224.221,41.002c-17.996,22.789-72.209,95.807-72.209,148.299c0,39.816,32.392,72.207,72.207,72.207   c39.816,0,72.209-32.391,72.209-72.207C296.428,136.762,242.217,63.777,224.221,41.002z" data-original="#000000" class="active-path" data-old_color="#fb3e16" fill="#fb3e16"/>
</g></g> </svg>
