<?xml version="1.0"?>
<svg xmlns="http://www.w3.org/2000/svg" xmlns:xlink="http://www.w3.org/1999/xlink" version="1.1" id="Layer_1" x="0px" y="0px" viewBox="0 0 511.999 511.999" style="enable-background:new 0 0 511.999 511.999;" xml:space="preserve" width="512px" height="512px" class=""><g><g>
	<g>
		<path d="M418.89,29.67V0.271L372.14,29.667l-46.719,29.374l-43.169-29.374L252.554,9.461L224.86,29.667l-39.921,29.124    l-45.487-29.124L93.109,0v29.67h-0.003v482.053l93.477-58.77l72.864,49.579l67.612-49.327l91.835,58.793V29.67H418.89z     M188.747,386.839H154.45v-31.327h34.297V386.839z M188.747,308.665H154.45v-31.327h34.297V308.665z M269.923,194.53    c-1.265-1.261-3.014-2.406-5.248-3.426c-2.237-1.021-4.884-1.968-7.946-2.844c-3.062-0.875-6.392-1.845-9.987-2.915    c-4.764-1.458-8.894-3.037-12.393-4.739c-3.499-1.699-6.392-3.667-8.674-5.904c-2.285-2.235-3.986-4.812-5.103-7.727    c-1.118-2.916-1.677-6.317-1.677-10.205c0-5.443,1.021-10.253,3.062-14.433c2.042-4.178,4.811-7.702,8.31-10.571    c3.499-2.865,7.556-5.03,12.174-6.488c1.024-0.324,2.065-0.597,3.116-0.849v-22.151h22.34v21.871    c3.44,0.677,6.742,1.536,9.898,2.588c3.208,1.07,6.196,2.285,8.967,3.645c2.769,1.362,5.321,2.722,7.654,4.082l-10.498,19.829    c-0.291-0.387-1.313-1.116-3.062-2.187c-1.749-1.068-3.937-2.187-6.561-3.354c-2.624-1.166-5.493-2.187-8.601-3.062    c-3.112-0.875-6.221-1.313-9.33-1.313c-8.554,0-12.831,2.869-12.831,8.602c0,1.75,0.461,3.207,1.385,4.373    c0.923,1.166,2.283,2.212,4.083,3.135c1.797,0.925,4.057,1.775,6.779,2.551c2.72,0.779,5.88,1.654,9.477,2.624    c4.957,1.363,9.427,2.844,13.413,4.447c3.985,1.604,7.363,3.597,10.133,5.977c2.77,2.383,4.907,5.274,6.415,8.674    c1.506,3.403,2.26,7.486,2.26,12.247c0,5.832-1.093,10.766-3.281,14.798c-2.187,4.035-5.08,7.29-8.674,9.769    c-3.596,2.478-7.727,4.277-12.392,5.395c-1.722,0.412-3.471,0.723-5.233,0.983v24.695h-22.34v-25.118    c-3.47-0.568-6.868-1.329-10.188-2.31c-3.791-1.115-7.461-2.453-11.007-4.01c-3.548-1.553-6.829-3.353-9.841-5.395l10.498-20.849    c0.387,0.487,1.651,1.41,3.791,2.769c2.137,1.363,4.786,2.722,7.946,4.083c3.158,1.363,6.681,2.576,10.57,3.645    c3.887,1.07,7.823,1.604,11.809,1.604c8.456,0,12.684-2.574,12.684-7.727C271.819,197.398,271.186,195.795,269.923,194.53z     M357.549,386.839H218.682v-31.327h138.867V386.839z M357.549,308.665H218.682v-31.327h138.867V308.665z" data-original="#000000" class="active-path" data-old_color="#ffffff" fill="#ffffff"/>
	</g>
</g></g> </svg>
