<?xml version="1.0"?>
<svg xmlns="http://www.w3.org/2000/svg" xmlns:xlink="http://www.w3.org/1999/xlink" version="1.1" id="Capa_1" x="0px" y="0px" viewBox="0 0 512 512" style="enable-background:new 0 0 512 512;" xml:space="preserve" width="512px" height="512px" class=""><g><g>
	<g>
		<path d="M507.572,494.731l-54.041-50.774c-1.572-1.477-3.58-2.405-5.724-2.646l-68.755-7.727l-50.481-51.052    c-1.046-1.058-2.315-1.869-3.715-2.373l-63.64-22.947l-20.21-57.266c-0.657-1.862-1.852-3.487-3.432-4.671l-51.23-38.371    l-5.097-44.833c-0.241-2.12-1.154-4.105-2.604-5.668l-29.018-31.256c-1.179-1.27-2.666-2.211-4.318-2.731l-45.947-14.478    l9.493-45.758c0.516-2.49,0.064-5.084-1.267-7.252L83.841,66.22c-0.447-0.727-0.984-1.394-1.599-1.985L18.182,2.782    C15.294,0.01,11.03-0.769,7.35,0.8c-3.682,1.57-6.071,5.186-6.071,9.189v492.022c0,5.517,4.472,9.989,9.989,9.989h489.465    c4.098,0,7.779-2.501,9.287-6.31C511.528,501.881,510.558,497.537,507.572,494.731z M21.257,492.022V33.415l46.228,44.346    l21.001,34.237l-10.523,50.724c-1.042,5.021,1.888,10.015,6.779,11.556l52.04,16.397l24.986,26.913l5.213,45.854    c0.311,2.733,1.735,5.218,3.937,6.867l52.257,39.14l20.778,58.877c0.998,2.827,3.211,5.055,6.031,6.072l65.971,23.787    l51.373,51.955c1.605,1.623,3.719,2.648,5.987,2.903l68.959,7.75l33.239,31.23H21.257z" data-original="#000000" class="active-path" data-old_color="#fb3e16" fill="#fb3e16"/>
	</g>
</g><g>
	<g>
		<path d="M296.313,79.641l-26.171-47.928c-1.888-3.455-5.626-5.484-9.555-5.17l-50.005,3.956c-3.278,0.26-6.219,2.116-7.863,4.965    l-21.357,37c-1.56,2.702-1.768,5.977-0.561,8.855l21.357,50.954c1.575,3.757,5.239,6.128,9.208,6.128    c0.547,0,1.1-0.045,1.654-0.138l56.219-9.41c2.941-0.493,5.51-2.275,7.001-4.859l19.958-34.572    C297.939,86.405,297.983,82.699,296.313,79.641z M261.292,109.926l-43.769,7.326l-16.384-39.091l16.255-28.161l38.315-3.031    l20.381,37.323L261.292,109.926z" data-original="#000000" class="active-path" data-old_color="#fb3e16" fill="#fb3e16"/>
	</g>
</g><g>
	<g>
		<path d="M377.66,249.477l-13.026-28.649c-1.441-3.17-4.429-5.36-7.886-5.782l-42.743-5.204c-3.91-0.477-7.736,1.391-9.767,4.767    l-20.388,33.893c-1.694,2.816-1.894,6.286-0.535,9.279l13.926,30.667c1.291,2.842,3.835,4.918,6.878,5.61l42.484,9.669    c0.741,0.169,1.484,0.25,2.22,0.25c3.749,0,7.267-2.12,8.97-5.601l19.748-40.376C378.852,255.321,378.896,252.194,377.66,249.477z     M343.322,282.493l-29.939-6.815l-9.705-21.376l14.342-23.844l30.749,3.744l8.754,19.255L343.322,282.493z" data-original="#000000" class="active-path" data-old_color="#fb3e16" fill="#fb3e16"/>
	</g>
</g><g>
	<g>
		<path d="M430.552,116.009L417.057,97.22c-2.032-2.83-5.388-4.398-8.864-4.133l-31.555,2.377c-3.927,0.296-7.313,2.872-8.648,6.576    l-9.849,27.35c-1.114,3.094-0.634,6.538,1.284,9.21l14.434,20.108c1.82,2.534,4.719,4.074,7.838,4.16l32.014,0.889    c0.094,0.002,0.187,0.004,0.28,0.004c4.519,0,8.492-3.043,9.654-7.434l8.451-31.935    C432.859,121.507,432.292,118.433,430.552,116.009z M406.355,143.567l-19.156-0.531l-8.483-11.819l5.877-16.317l19.509-1.469    l7.475,10.408L406.355,143.567z" data-original="#000000" class="active-path" data-old_color="#fb3e16" fill="#fb3e16"/>
	</g>
</g><g>
	<g>
		<path d="M489.501,359.451l-6.952-30.876c-0.865-3.842-3.908-6.818-7.768-7.597l-28.489-5.754    c-3.222-0.649-6.561,0.327-8.925,2.614l-17.791,17.221c-2.242,2.17-3.34,5.261-2.972,8.358l3.786,31.794    c0.547,4.604,4.191,8.225,8.798,8.745l32.824,3.706c0.375,0.042,0.749,0.063,1.122,0.063c2.578,0,5.074-0.999,6.947-2.812    l16.622-16.092C489.206,366.399,490.266,362.848,489.501,359.451z M459.572,367.282l-20.279-2.289l-2.266-19.022l10.46-10.124    l16.993,3.432l4.298,19.09L459.572,367.282z" data-original="#000000" class="active-path" data-old_color="#fb3e16" fill="#fb3e16"/>
	</g>
</g><g>
	<g>
		<path d="M414.091,295.186c-12.855,0-12.877,19.978,0,19.978C426.946,315.164,426.967,295.186,414.091,295.186z" data-original="#000000" class="active-path" data-old_color="#fb3e16" fill="#fb3e16"/>
	</g>
</g><g>
	<g>
		<path d="M258.748,205.643c-12.855,0-12.876,19.978,0,19.978C271.603,225.621,271.624,205.643,258.748,205.643z" data-original="#000000" class="active-path" data-old_color="#fb3e16" fill="#fb3e16"/>
	</g>
</g><g>
	<g>
		<path d="M225.031,178.451c-12.855,0-12.877,19.978,0,19.978C237.886,198.429,237.907,178.451,225.031,178.451z" data-original="#000000" class="active-path" data-old_color="#fb3e16" fill="#fb3e16"/>
	</g>
</g><g>
	<g>
		<path d="M143.124,38.498c-12.855,0-12.876,19.978,0,19.978C155.979,58.476,156,38.498,143.124,38.498z" data-original="#000000" class="active-path" data-old_color="#fb3e16" fill="#fb3e16"/>
	</g>
</g><g>
	<g>
		<path d="M339.99,51.55c-12.855,0-12.876,19.978,0,19.978C352.845,71.528,352.867,51.55,339.99,51.55z" data-original="#000000" class="active-path" data-old_color="#fb3e16" fill="#fb3e16"/>
	</g>
</g><g>
	<g>
		<path d="M137.63,444.074H59.715c-5.517,0-9.989,4.472-9.989,9.989s4.472,9.989,9.989,9.989h77.915    c5.517,0,9.989-4.472,9.989-9.989S143.147,444.074,137.63,444.074z" data-original="#000000" class="active-path" data-old_color="#fb3e16" fill="#fb3e16"/>
	</g>
</g><g>
	<g>
		<path d="M172.591,445.073c-12.855,0-12.876,19.978,0,19.978C185.446,465.051,185.467,445.073,172.591,445.073z" data-original="#000000" class="active-path" data-old_color="#fb3e16" fill="#fb3e16"/>
	</g>
</g></g> </svg>
