<?xml version="1.0"?>
<svg xmlns="http://www.w3.org/2000/svg" xmlns:xlink="http://www.w3.org/1999/xlink" version="1.1" id="Capa_1" x="0px" y="0px" viewBox="0 0 294.879 294.879" style="enable-background:new 0 0 294.879 294.879;" xml:space="preserve" width="512px" height="512px" class=""><g><path d="M241.53,54.691l12.935-12.921c4.885-4.879,4.889-12.794,0.01-17.678c-4.878-4.885-12.792-4.888-17.678-0.01L223.87,36.996  C171.167-8.005,95.438-11.955,38.698,25.158c-3.045,1.991-4.78,5.469-4.541,9.099s2.413,6.854,5.694,8.427  c9.253,4.434,19.202,11.525,28.439,20.763c13.465,13.465,22.367,28.442,25.125,40.568c0.86,3.783,3.818,6.738,7.601,7.599  c9.411,2.141,20.537,7.996,31.342,16.798L27.101,233.557c-14.049,14.033-14.061,36.766-0.014,50.813  c14.013,14.013,36.809,14.008,50.817,0l12.551-12.55c4.882-4.881,4.882-12.796,0-17.678c-4.88-4.88-12.794-4.881-17.678,0  l-12.551,12.55c-4.272,4.272-11.188,4.274-15.462,0c-4.27-4.27-4.268-11.18,0.004-15.448l105.253-105.143  c8.74,10.762,14.553,21.833,16.684,31.204c0.86,3.783,3.818,6.738,7.601,7.599c12.126,2.758,27.101,11.66,40.566,25.124  c9.237,9.237,16.329,19.187,20.762,28.439c1.573,3.283,4.795,5.464,8.428,5.703s7.105-1.503,9.098-4.55  C290.217,182.968,286.337,107.384,241.53,54.691z" data-original="#000000" class="active-path" data-old_color="#ffffff" fill="#ffffff"/></g> </svg>
