<?xml version="1.0"?>
<svg xmlns="http://www.w3.org/2000/svg" xmlns:xlink="http://www.w3.org/1999/xlink" version="1.1" id="Capa_1" x="0px" y="0px" viewBox="0 0 512 512" style="enable-background:new 0 0 512 512;" xml:space="preserve" width="512px" height="512px" class=""><g><path d="M507.203,205.836C487.977,105.187,406.813,24.023,306.164,4.797C126.117-29.594-29.594,126.117,4.797,306.164  c19.227,100.648,100.391,181.813,201.039,201.039C385.883,541.594,541.594,385.883,507.203,205.836z M374.625,374.625  C368.375,380.875,360.188,384,352,384s-16.375-3.125-22.625-9.375l-96-96c-6-6-9.375-14.125-9.375-22.625V128  c0-17.688,14.328-32,32-32s32,14.313,32,32v114.75l86.625,86.625C387.125,341.875,387.125,362.125,374.625,374.625z" data-original="#000000" class="active-path" data-old_color="#ffffff" fill="#ffffff"/></g> </svg>
